<svg width="168" height="18" viewBox="0 0 168 18" fill="none" xmlns="http://www.w3.org/2000/svg">
<path d="M4.26074 15.6543C4.15918 16.6699 3.60059 17.2201 2.58496 17.3047C2.111 17.3047 1.69629 17.1523 1.34082 16.8477C1.00228 16.526 0.833008 16.1283 0.833008 15.6543V3.61914C0.849935 3.14518 1.02767 2.75586 1.36621 2.45117C1.70475 2.12956 2.111 1.96875 2.58496 1.96875H3.8291H6.95215H13.2236C13.3252 1.96875 13.4268 1.97721 13.5283 1.99414H13.6807C14.8656 2.02799 15.8389 2.29883 16.6006 2.80664C17.3623 3.31445 17.9124 3.89844 18.251 4.55859C18.5895 5.20182 18.7588 5.85352 18.7588 6.51367C18.7588 7.19076 18.5895 7.85938 18.251 8.51953C17.9294 9.16276 17.3792 9.73828 16.6006 10.2461C15.8389 10.7539 14.8656 11.0247 13.6807 11.0586H9.21191C9.34733 11.9049 9.62663 12.5312 10.0498 12.9375C10.4561 13.3438 10.9723 13.5469 11.5986 13.5469H17.083C17.557 13.5638 17.9463 13.7415 18.251 14.0801C18.5726 14.4186 18.7334 14.8249 18.7334 15.2988C18.7165 15.7559 18.5472 16.1452 18.2256 16.4668C17.9209 16.7715 17.54 16.9323 17.083 16.9492H11.1416C9.889 16.9661 8.75488 16.4753 7.73926 15.4766C6.72363 14.4779 6.10579 13.293 5.88574 11.9219C5.58105 10.3984 5.42871 9.54362 5.42871 9.35742C5.42871 8.88346 5.58952 8.48568 5.91113 8.16406C6.24967 7.82552 6.65592 7.65625 7.12988 7.65625H13.833C14.1546 7.63932 14.417 7.57161 14.6201 7.45312C14.8402 7.31771 15.001 7.17383 15.1025 7.02148C15.2041 6.85221 15.2549 6.68294 15.2549 6.51367C15.2549 6.3444 15.2041 6.18359 15.1025 6.03125C15.001 5.86198 14.8402 5.7181 14.6201 5.59961C14.417 5.46419 14.1546 5.38802 13.833 5.37109H6.95215H4.9209C4.48079 5.38802 4.26074 5.60807 4.26074 6.03125V15.6543ZM26.7061 16.9492C25.2165 16.8984 24.0908 16.5514 23.3291 15.9082C22.5674 15.248 22.0173 14.5117 21.6787 13.6992C21.3402 12.8698 21.1709 12.0319 21.1709 11.1855C21.1709 10.3053 21.3317 9.45898 21.6533 8.64648C21.9919 7.81706 22.542 7.08073 23.3037 6.4375C24.0824 5.77734 25.0641 5.4388 26.249 5.42188H35.8975C36.3714 5.42188 36.7692 5.58268 37.0908 5.9043C37.4294 6.20898 37.5986 6.58138 37.5986 7.02148C37.5986 7.47852 37.4294 7.86784 37.0908 8.18945C36.7692 8.49414 36.3714 8.64648 35.8975 8.64648H26.4014C26.029 8.64648 25.6989 8.77344 25.4111 9.02734C25.1403 9.28125 24.9372 9.61133 24.8018 10.0176C24.6833 10.4238 24.624 10.8216 24.624 11.2109C24.624 11.6341 24.6833 12.0488 24.8018 12.4551C24.9372 12.8613 25.1403 13.1914 25.4111 13.4453C25.6989 13.6823 26.029 13.8092 26.4014 13.8262H35.8975C36.3714 13.8262 36.7692 13.9785 37.0908 14.2832C37.4294 14.5879 37.5986 14.9518 37.5986 15.375C37.5986 15.8151 37.4294 16.1875 37.0908 16.4922C36.7692 16.7969 36.3714 16.9492 35.8975 16.9492H26.7061ZM37.2939 11.1348C37.2939 11.4564 37.1501 11.7357 36.8623 11.9727C36.6084 12.1927 36.2868 12.3027 35.8975 12.3027H27.5947C27.2054 12.3027 26.8753 12.1927 26.6045 11.9727C26.3337 11.7357 26.1982 11.4564 26.1982 11.1348C26.1982 10.8301 26.3337 10.5592 26.6045 10.3223C26.8753 10.1022 27.2054 9.99219 27.5947 9.99219H35.8975C36.2868 9.99219 36.6169 10.1107 36.8877 10.3477C37.1585 10.5677 37.2939 10.8301 37.2939 11.1348ZM54.7119 15.6035V9.48438C54.7119 9.0612 54.4919 8.84115 54.0518 8.82422H45.165C44.8434 8.84115 44.5641 8.98503 44.3271 9.25586C44.0902 9.50977 43.9124 9.81445 43.7939 10.1699C43.6924 10.5085 43.6416 10.8555 43.6416 11.2109C43.6416 11.5495 43.6924 11.8965 43.7939 12.252C43.9124 12.5905 44.0902 12.8952 44.3271 13.166C44.5641 13.4199 44.8434 13.5469 45.165 13.5469H51.665C52.139 13.5469 52.5368 13.7161 52.8584 14.0547C53.1969 14.3763 53.3662 14.7741 53.3662 15.248C53.3662 15.722 53.1969 16.1198 52.8584 16.4414C52.5368 16.7799 52.139 16.9492 51.665 16.9492H45.2666C44.0817 16.9323 43.0999 16.6022 42.3213 15.959C41.5596 15.2988 41.0094 14.5625 40.6709 13.75C40.3493 12.9206 40.1885 12.0658 40.1885 11.1855C40.1885 10.3392 40.3577 9.50977 40.6963 8.69727C41.0348 7.86784 41.585 7.13151 42.3467 6.48828C43.1084 5.82812 44.234 5.47266 45.7236 5.42188H56.3877C56.8617 5.42188 57.2679 5.58268 57.6064 5.9043C57.945 6.20898 58.1227 6.59831 58.1396 7.07227V15.6035C58.1396 16.0775 57.9619 16.4753 57.6064 16.7969C57.2679 17.1016 56.8617 17.2539 56.3877 17.2539C55.3721 17.1693 54.8135 16.6191 54.7119 15.6035ZM75.5576 3.21289C75.6592 2.19727 76.2178 1.64714 77.2334 1.5625C77.7074 1.5625 78.1136 1.72331 78.4521 2.04492C78.8076 2.34961 78.9854 2.73893 78.9854 3.21289V15.2988C78.9684 15.7728 78.7907 16.1706 78.4521 16.4922C78.1136 16.7969 77.7074 16.9492 77.2334 16.9492H66.5693C65.0798 16.8984 63.9541 16.5514 63.1924 15.9082C62.4307 15.248 61.8805 14.5117 61.542 13.6992C61.2035 12.8698 61.0342 12.0319 61.0342 11.1855C61.0342 10.3053 61.195 9.45898 61.5166 8.64648C61.8551 7.81706 62.4053 7.08073 63.167 6.4375C63.9456 5.77734 64.9274 5.4388 66.1123 5.42188H72.5107C72.9847 5.42188 73.3825 5.59115 73.7041 5.92969C74.0426 6.2513 74.2119 6.64909 74.2119 7.12305C74.2119 7.59701 74.0426 8.00326 73.7041 8.3418C73.3825 8.66341 72.9847 8.82422 72.5107 8.82422H66.0107C65.6891 8.82422 65.4098 8.95964 65.1729 9.23047C64.9359 9.48438 64.7581 9.78906 64.6396 10.1445C64.5381 10.4831 64.4873 10.8216 64.4873 11.1602C64.4873 11.5156 64.5381 11.8711 64.6396 12.2266C64.7581 12.5651 64.9359 12.8698 65.1729 13.1406C65.4098 13.3945 65.6891 13.5299 66.0107 13.5469H74.8975C75.3376 13.5299 75.5576 13.3099 75.5576 12.8867V3.21289ZM88.126 5.37109C87.4827 5.40495 86.9411 5.65039 86.501 6.10742C86.0778 6.56445 85.7731 7.08919 85.5869 7.68164C85.4007 8.25716 85.3076 8.84961 85.3076 9.45898C85.3076 10.0684 85.3923 10.6693 85.5615 11.2617C85.7477 11.8542 86.0609 12.3789 86.501 12.8359C86.9411 13.276 87.4827 13.513 88.126 13.5469H96.5049C97.5713 13.6484 98.1553 14.2324 98.2568 15.2988C98.2399 15.7728 98.0622 16.1706 97.7236 16.4922C97.3851 16.7969 96.9788 16.9492 96.5049 16.9492H88.4053H87.2373C86.0524 16.8815 85.0791 16.4329 84.3174 15.6035C83.5557 14.7572 83.0055 13.8008 82.667 12.7344C82.3454 11.668 82.1846 10.5762 82.1846 9.45898C82.1846 8.62956 82.2777 7.80859 82.4639 6.99609C82.6501 6.18359 82.9378 5.41341 83.3271 4.68555C83.7334 3.94076 84.2666 3.30599 84.9268 2.78125C85.6038 2.25651 86.374 1.98568 87.2373 1.96875H87.7197H96.5049C97.5713 2.07031 98.1553 2.6543 98.2568 3.7207C98.2568 4.19466 98.0791 4.59245 97.7236 4.91406C97.3851 5.21875 96.9788 5.37109 96.5049 5.37109H88.126ZM102.345 5.16797C102.802 5.1849 103.191 5.35417 103.513 5.67578C103.834 5.98047 104.004 6.36133 104.021 6.81836V15.6035C103.919 16.6191 103.36 17.1693 102.345 17.2539C101.871 17.2539 101.456 17.1016 101.101 16.7969C100.762 16.4753 100.593 16.0775 100.593 15.6035V6.81836C100.61 6.3444 100.787 5.95508 101.126 5.65039C101.465 5.32878 101.871 5.16797 102.345 5.16797ZM100.212 1.86719C100.212 1.39323 100.415 0.986979 100.821 0.648438C101.228 0.309896 101.718 0.140625 102.294 0.140625C102.869 0.140625 103.36 0.309896 103.767 0.648438C104.173 0.986979 104.376 1.39323 104.376 1.86719C104.376 2.35807 104.173 2.77279 103.767 3.11133C103.36 3.44987 102.869 3.61914 102.294 3.61914C101.718 3.61914 101.228 3.44987 100.821 3.11133C100.415 2.77279 100.212 2.35807 100.212 1.86719ZM107.651 8.62109C107.973 7.80859 108.515 7.08073 109.276 6.4375C110.055 5.77734 111.037 5.4388 112.222 5.42188H121.769C122.243 5.42188 122.64 5.59115 122.962 5.92969C123.3 6.2513 123.47 6.64909 123.47 7.12305C123.47 7.59701 123.3 8.00326 122.962 8.3418C122.64 8.66341 122.243 8.82422 121.769 8.82422H112.12C111.799 8.82422 111.519 8.95964 111.282 9.23047C111.045 9.48438 110.859 9.78906 110.724 10.1445C110.605 10.5 110.546 10.8385 110.546 11.1602V15.6035C110.444 16.6191 109.886 17.1693 108.87 17.2539C108.396 17.2539 107.981 17.1016 107.626 16.7969C107.287 16.4753 107.118 16.0775 107.118 15.6035V11.1855H107.144C107.144 10.3053 107.313 9.45052 107.651 8.62109ZM131.138 16.9492C129.648 16.8984 128.522 16.5514 127.761 15.9082C126.999 15.248 126.449 14.5117 126.11 13.6992C125.772 12.8698 125.603 12.0319 125.603 11.1855C125.603 10.3053 125.763 9.45898 126.085 8.64648C126.424 7.81706 126.974 7.08073 127.735 6.4375C128.514 5.77734 129.496 5.4388 130.681 5.42188H140.329C140.803 5.42188 141.201 5.59115 141.522 5.92969C141.861 6.2513 142.03 6.64909 142.03 7.12305C142.03 7.59701 141.861 8.00326 141.522 8.3418C141.201 8.66341 140.803 8.82422 140.329 8.82422H130.579C130.257 8.82422 129.978 8.95964 129.741 9.23047C129.504 9.48438 129.326 9.78906 129.208 10.1445C129.106 10.4831 129.056 10.8216 129.056 11.1602C129.056 11.5156 129.106 11.8711 129.208 12.2266C129.326 12.5651 129.504 12.8698 129.741 13.1406C129.978 13.3945 130.257 13.5299 130.579 13.5469H140.329C140.803 13.5469 141.201 13.7161 141.522 14.0547C141.861 14.3763 142.03 14.7741 142.03 15.248C142.03 15.722 141.861 16.1198 141.522 16.4414C141.201 16.7799 140.803 16.9492 140.329 16.9492H131.138ZM146.448 1.5625C146.905 1.57943 147.295 1.7487 147.616 2.07031C147.938 2.375 148.107 2.75586 148.124 3.21289V15.6543C148.022 16.6699 147.464 17.2201 146.448 17.3047C145.974 17.3047 145.56 17.1523 145.204 16.8477C144.866 16.526 144.696 16.1283 144.696 15.6543V3.21289C144.713 2.73893 144.891 2.34961 145.229 2.04492C145.568 1.72331 145.974 1.5625 146.448 1.5625ZM156.554 16.9492C155.064 16.8984 153.938 16.5514 153.177 15.9082C152.415 15.248 151.865 14.5117 151.526 13.6992C151.188 12.8698 151.019 12.0319 151.019 11.1855C151.019 10.3053 151.179 9.45898 151.501 8.64648C151.84 7.81706 152.39 7.08073 153.151 6.4375C153.93 5.77734 154.912 5.4388 156.097 5.42188H165.745C166.219 5.42188 166.617 5.58268 166.938 5.9043C167.277 6.20898 167.446 6.58138 167.446 7.02148C167.446 7.47852 167.277 7.86784 166.938 8.18945C166.617 8.49414 166.219 8.64648 165.745 8.64648H156.249C155.877 8.64648 155.547 8.77344 155.259 9.02734C154.988 9.28125 154.785 9.61133 154.649 10.0176C154.531 10.4238 154.472 10.8216 154.472 11.2109C154.472 11.6341 154.531 12.0488 154.649 12.4551C154.785 12.8613 154.988 13.1914 155.259 13.4453C155.547 13.6823 155.877 13.8092 156.249 13.8262H165.745C166.219 13.8262 166.617 13.9785 166.938 14.2832C167.277 14.5879 167.446 14.9518 167.446 15.375C167.446 15.8151 167.277 16.1875 166.938 16.4922C166.617 16.7969 166.219 16.9492 165.745 16.9492H156.554ZM167.142 11.1348C167.142 11.4564 166.998 11.7357 166.71 11.9727C166.456 12.1927 166.134 12.3027 165.745 12.3027H157.442C157.053 12.3027 156.723 12.1927 156.452 11.9727C156.181 11.7357 156.046 11.4564 156.046 11.1348C156.046 10.8301 156.181 10.5592 156.452 10.3223C156.723 10.1022 157.053 9.99219 157.442 9.99219H165.745C166.134 9.99219 166.465 10.1107 166.735 10.3477C167.006 10.5677 167.142 10.8301 167.142 11.1348Z" fill="#495560"/>
</svg>
