<svg width="39" height="42" viewBox="0 0 39 42" fill="none" xmlns="http://www.w3.org/2000/svg">
<path fill-rule="evenodd" clip-rule="evenodd" d="M37.2275 2.56676C36.1518 1.49983 34.6984 0.900578 33.1833 0.899261C31.8709 0.903529 30.5994 1.35667 29.58 2.18343L11.6208 16.7884L11.3333 17.0759C8.83024 19.5576 8.27495 23.3977 9.97251 26.4868C9.27607 26.2743 8.5538 26.1582 7.82585 26.1418C3.59166 26.1418 0.15918 29.5742 0.15918 33.8084V38.6001C0.15918 40.1879 1.44636 41.4751 3.03418 41.4751H7.82585C10.4873 41.4605 12.9508 40.0666 14.334 37.7927C15.7171 35.5187 15.8219 32.6902 14.6108 30.3201C15.3769 30.5787 16.179 30.7146 16.9875 30.7226C19.1103 30.7368 21.149 29.8937 22.6417 28.3843L22.8333 28.1734L37.5342 10.2143C39.3898 7.95741 39.2578 4.66779 37.2275 2.56676ZM7.90251 38.6001H3.11085V33.8084C3.11085 31.1621 5.25615 29.0168 7.90251 29.0168C10.5489 29.0168 12.6942 31.1621 12.6942 33.8084C12.6942 36.4548 10.5489 38.6001 7.90251 38.6001ZM20.6867 26.3718L35.3875 8.39343C36.2886 7.26469 36.1978 5.63908 35.1765 4.61779C34.1552 3.59649 32.5296 3.50564 31.4008 4.40676L13.4417 19.1076C11.4357 21.1082 11.4314 24.3562 13.4321 26.3622C15.4327 28.3681 18.6807 28.3724 20.6867 26.3718Z" fill="black"/>
<path d="M21.3 16.4626L15.55 22.2126C14.9895 22.7738 14.9895 23.683 15.55 24.2443C16.1112 24.8048 17.0204 24.8048 17.5817 24.2443L23.3317 18.4943C23.7163 18.1359 23.8746 17.5962 23.7445 17.0869C23.6144 16.5776 23.2167 16.1798 22.7074 16.0498C22.1981 15.9197 21.6584 16.078 21.3 16.4626Z" fill="black"/>
</svg>
