<svg width="38" height="38" viewBox="0 0 38 38" fill="none" xmlns="http://www.w3.org/2000/svg">
<path fill-rule="evenodd" clip-rule="evenodd" d="M29.7069 20.3026L37.1719 27.7675C37.6739 28.3422 37.8488 29.133 37.6359 29.8658L36.264 34.6474C36.0526 35.3709 35.4916 35.9395 34.771 36.1605L29.8683 37.6333C29.087 37.8452 28.2517 37.6306 27.6692 37.0684L20.1841 29.5833C19.1668 28.5669 17.7889 27.9939 16.3508 27.9895C15.6586 27.9926 14.9735 28.1296 14.3333 28.393C13.6906 28.6457 13.0063 28.7757 12.3157 28.7763C10.8759 28.7808 9.4946 28.2065 8.48238 27.1825L2.42975 21.1298C1.05478 19.7597 0.516274 17.7595 1.01747 15.8842L3.37799 7.14825C3.8577 5.25265 5.32347 3.76373 7.21132 3.25439L16.028 1.01491C16.4892 0.895064 16.9637 0.834053 17.4403 0.833336C18.8783 0.837804 20.2563 1.41075 21.2736 2.4272L27.3262 8.47983C28.8769 10.031 29.3461 12.3608 28.5166 14.3912C27.6871 16.4217 28.1563 18.7515 29.7069 20.3026ZM29.5455 34.6676L33.5806 33.4772L34.6903 29.5228L27.5684 22.4009C25.1447 19.9917 24.4191 16.3558 25.7324 13.2009C26.079 12.2918 25.8576 11.2639 25.1675 10.5781L19.1148 4.52544C18.6697 4.06906 18.0576 3.81402 17.4201 3.8193C17.2128 3.78865 17.002 3.78865 16.7947 3.8193L7.99817 6.17983C7.17153 6.40221 6.52582 7.04792 6.30344 7.87456L3.94291 16.7518C3.72151 17.5813 3.95999 18.466 4.56835 19.0719L10.621 25.1246C11.0661 25.581 11.6782 25.836 12.3157 25.8307C12.6252 25.8277 12.9321 25.7732 13.2236 25.6693C14.2203 25.2522 15.2906 25.0396 16.371 25.0439C18.6411 25.0184 20.8247 25.9137 22.4236 27.5254L29.5455 34.6676Z" fill="black"/>
<path d="M16.7341 10.3561L10.4798 16.6105C9.88971 17.2013 9.88971 18.1584 10.4798 18.7491C11.0705 19.3392 12.0276 19.3392 12.6183 18.7491L18.8727 12.4947C19.1611 12.2137 19.3238 11.8281 19.3238 11.4254C19.3238 11.0228 19.1611 10.6372 18.8727 10.3561C18.282 9.76611 17.3249 9.76611 16.7341 10.3561Z" fill="black"/>
</svg>
